<svg width="123" height="90" viewBox="0 0 123 90" fill="none" xmlns="http://www.w3.org/2000/svg">
<path d="M56.75 22.9999C56.75 19.5624 53.9375 16.7499 50.5 16.7499H6.75C3.3125 16.7499 0.5 19.5624 0.5 22.9999C0.5 26.4374 3.3125 29.2499 6.75 29.2499H50.5C53.9375 29.2499 56.75 26.4374 56.75 22.9999ZM56.75 72.9999C56.75 69.5624 53.9375 66.7499 50.5 66.7499H6.75C3.3125 66.7499 0.5 69.5624 0.5 72.9999C0.5 76.4374 3.3125 79.2499 6.75 79.2499H50.5C53.9375 79.2499 56.75 76.4374 56.75 72.9999ZM94.5625 37.3124C93.9843 37.8918 93.2975 38.3514 92.5414 38.6651C91.7853 38.9787 90.9748 39.1401 90.1562 39.1401C89.3377 39.1401 88.5272 38.9787 87.7711 38.6651C87.015 38.3514 86.3282 37.8918 85.75 37.3124L72.5 24.0624C71.3314 22.8938 70.6749 21.3088 70.6749 19.6561C70.6749 18.8378 70.836 18.0275 71.1492 17.2715C71.4624 16.5154 71.9214 15.8285 72.5 15.2499C73.0786 14.6712 73.7656 14.2122 74.5216 13.8991C75.2776 13.5859 76.0879 13.4247 76.9062 13.4247C78.5589 13.4247 80.1439 14.0813 81.3125 15.2499L90.125 24.0624L112.25 1.93737C113.419 0.768763 115.004 0.112244 116.656 0.112244C118.309 0.112244 119.894 0.768763 121.062 1.93737C122.231 3.10598 122.888 4.69096 122.888 6.34362C122.888 7.99629 122.231 9.58126 121.062 10.7499L94.5625 37.3124ZM94.5625 87.3124C93.9843 87.8918 93.2975 88.3514 92.5414 88.6651C91.7853 88.9787 90.9748 89.1401 90.1562 89.1401C89.3377 89.1401 88.5272 88.9787 87.7711 88.6651C87.015 88.3514 86.3282 87.8918 85.75 87.3124L72.5 74.0624C71.3314 72.8938 70.6749 71.3088 70.6749 69.6561C70.6749 68.0035 71.3314 66.4185 72.5 65.2499C73.6686 64.0813 75.2536 63.4247 76.9062 63.4247C78.5589 63.4247 80.1439 64.0813 81.3125 65.2499L90.125 74.0624L112.25 51.9374C112.829 51.3587 113.516 50.8997 114.272 50.5866C115.028 50.2734 115.838 50.1122 116.656 50.1122C117.475 50.1122 118.285 50.2734 119.041 50.5866C119.797 50.8997 120.484 51.3587 121.062 51.9374C121.641 52.516 122.1 53.203 122.413 53.959C122.726 54.715 122.888 55.5253 122.888 56.3436C122.888 57.1619 122.726 57.9722 122.413 58.7283C122.1 59.4843 121.641 60.1712 121.062 60.7499L94.5625 87.3124Z" fill="white"/>
</svg>
