<svg width="35" height="35" viewBox="0 0 35 35" fill="none" xmlns="http://www.w3.org/2000/svg">
<path d="M13.5978 10.4783L13.5978 10.4774C13.5935 8.07156 14.215 5.70245 15.4062 3.58777C15.6141 3.22159 15.7045 2.80199 15.6642 2.38355C15.6238 1.96521 15.4549 1.57017 15.1818 1.24895C14.8926 0.905878 14.4986 0.665249 14.0603 0.559803C13.6222 0.454389 13.1605 0.488958 12.7436 0.658979C6.14899 3.31153 1.5 9.5777 1.5 16.9012C1.5 26.6341 9.70843 34.4996 19.8001 34.5C22.5222 34.5042 25.2114 33.921 27.672 32.7924C30.1321 31.664 32.3022 30.0185 34.0235 27.9747C34.3145 27.6334 34.4827 27.2063 34.4987 26.7592C34.5148 26.3122 34.3776 25.8743 34.1114 25.5136C33.863 25.1733 33.5184 24.9135 33.1223 24.7641C32.7258 24.6146 32.2933 24.5814 31.8782 24.6682C30.8602 24.8778 29.8 24.9877 28.7098 24.9877C20.3482 24.9877 13.5978 18.4773 13.5978 10.4783Z" fill="#8B8B8B" stroke="#2ECDFF"/>
</svg>
