<svg width="40" height="40" viewBox="0 0 40 40" fill="none" xmlns="http://www.w3.org/2000/svg">
<path d="M20.3333 11.5C17.9906 11.5 15.7438 12.4307 14.0872 14.0872C12.4307 15.7438 11.5 17.9906 11.5 20.3333C11.5 22.6761 12.4307 24.9229 14.0872 26.5794C15.7438 28.236 17.9906 29.1667 20.3333 29.1667C22.6761 29.1667 24.9229 28.236 26.5794 26.5794C28.236 24.9229 29.1667 22.6761 29.1667 20.3333C29.1667 17.9906 28.236 15.7438 26.5794 14.0872C24.9229 12.4307 22.6761 11.5 20.3333 11.5Z" fill="#383838" stroke="#2ECDFF"/>
<path d="M5.46817 5.46806L5.46806 5.46817C5.06187 5.87448 4.83369 6.42548 4.83369 7C4.83369 7.57452 5.06187 8.12552 5.46806 8.53183L5.46811 8.53189L7.96811 11.0319L7.96806 11.0319L7.97431 11.038C8.38295 11.4327 8.93025 11.651 9.49835 11.6461C10.0664 11.6412 10.6099 11.4133 11.0116 11.0116C11.4133 10.6099 11.6412 10.0664 11.6461 9.49835C11.651 8.93025 11.4327 8.38295 11.038 7.97431L11.038 7.97426L11.0319 7.96811L8.53189 5.46811L8.53183 5.46806C8.12552 5.06187 7.57452 4.83369 7 4.83369C6.42548 4.83369 5.87448 5.06187 5.46817 5.46806ZM35.1986 5.46816L35.1985 5.46806C34.7922 5.06187 34.2412 4.83369 33.6667 4.83369C33.0921 4.83369 32.5411 5.06187 32.1348 5.46806L32.1348 5.46811L29.6377 7.96523C29.4323 8.16445 29.2684 8.40239 29.1554 8.66531C29.0419 8.92965 28.9821 9.21396 28.9796 9.50165C28.9771 9.78934 29.0319 10.0746 29.1409 10.3409C29.2498 10.6072 29.4107 10.8491 29.6141 11.0525C29.8176 11.256 30.0595 11.4169 30.3257 11.5258C30.592 11.6347 30.8773 11.6896 31.165 11.6871C31.4527 11.6846 31.737 11.6248 32.0014 11.5112C32.2643 11.3983 32.5022 11.2344 32.7014 11.029L35.1986 8.53189L35.1986 8.53183C35.6048 8.12552 35.833 7.57452 35.833 7C35.833 6.42548 35.6048 5.87448 35.1986 5.46816ZM11.0319 29.6348L11.0318 29.6347C10.6255 29.2285 10.0745 29.0004 9.5 29.0004C8.92548 29.0004 8.37448 29.2285 7.96817 29.6347L7.96811 29.6348L5.46811 32.1348L5.46806 32.1347L5.46202 32.141C5.06735 32.5496 4.84896 33.0969 4.8539 33.665C4.85883 34.2331 5.0867 34.7765 5.48842 35.1782C5.89013 35.58 6.43356 35.8078 7.00165 35.8128C7.56975 35.8177 8.11705 35.5993 8.52569 35.2046L8.52574 35.2047L8.53189 35.1986L11.0319 32.6986L11.0319 32.6985C11.4381 32.2922 11.6663 31.7412 11.6663 31.1667C11.6663 30.5921 11.4381 30.0411 11.0319 29.6348ZM32.6986 29.6348L32.6985 29.6347C32.2922 29.2285 31.7412 29.0004 31.1667 29.0004C30.5921 29.0004 30.0411 29.2285 29.6348 29.6347L29.6347 29.6348C29.2285 30.0411 29.0004 30.5921 29.0004 31.1667C29.0004 31.7412 29.2285 32.2922 29.6347 32.6985L29.6348 32.6986L32.1348 35.1986L32.1347 35.1986L32.141 35.2046C32.5496 35.5993 33.0969 35.8177 33.665 35.8128C34.2331 35.8078 34.7765 35.58 35.1782 35.1782C35.58 34.7765 35.8078 34.2331 35.8128 33.665C35.8177 33.0969 35.5993 32.5496 35.2046 32.141L35.2047 32.1409L35.1986 32.1348L32.6986 29.6348ZM21.8654 2.1346C21.4591 1.72827 20.908 1.5 20.3333 1.5C19.7587 1.5 19.2076 1.72827 18.8013 2.1346C18.3949 2.54093 18.1667 3.09203 18.1667 3.66667V5.33333C18.1667 5.90797 18.3949 6.45907 18.8013 6.8654C19.2076 7.27173 19.7587 7.5 20.3333 7.5C20.908 7.5 21.4591 7.27173 21.8654 6.8654C22.2717 6.45907 22.5 5.90797 22.5 5.33333V3.66667C22.5 3.09203 22.2717 2.54093 21.8654 2.1346ZM2.1346 18.8013C1.72827 19.2076 1.5 19.7587 1.5 20.3333C1.5 20.908 1.72827 21.4591 2.1346 21.8654C2.54093 22.2717 3.09203 22.5 3.66667 22.5H5.33333C5.90797 22.5 6.45907 22.2717 6.8654 21.8654C7.27173 21.4591 7.5 20.908 7.5 20.3333C7.5 19.7587 7.27173 19.2076 6.8654 18.8013C6.45907 18.3949 5.90797 18.1667 5.33333 18.1667H3.66667C3.09203 18.1667 2.54093 18.3949 2.1346 18.8013ZM33.8013 18.8013C33.3949 19.2076 33.1667 19.7587 33.1667 20.3333C33.1667 20.908 33.3949 21.4591 33.8013 21.8654C34.2076 22.2717 34.7587 22.5 35.3333 22.5H37C37.5746 22.5 38.1257 22.2717 38.5321 21.8654C38.9384 21.4591 39.1667 20.908 39.1667 20.3333C39.1667 19.7587 38.9384 19.2076 38.5321 18.8013C38.1257 18.3949 37.5746 18.1667 37 18.1667H35.3333C34.7587 18.1667 34.2076 18.3949 33.8013 18.8013ZM21.8654 33.8013C21.4591 33.3949 20.908 33.1667 20.3333 33.1667C19.7587 33.1667 19.2076 33.3949 18.8013 33.8013C18.3949 34.2076 18.1667 34.7587 18.1667 35.3333V37C18.1667 37.5746 18.3949 38.1257 18.8013 38.5321C19.2076 38.9384 19.7587 39.1667 20.3333 39.1667C20.908 39.1667 21.4591 38.9384 21.8654 38.5321C22.2717 38.1257 22.5 37.5746 22.5 37V35.3333C22.5 34.7587 22.2717 34.2076 21.8654 33.8013Z" fill="#383838" stroke="#2ECDFF"/>
</svg>
