<svg width="102" height="38" viewBox="0 0 102 38" fill="none" xmlns="http://www.w3.org/2000/svg">
<path d="M13.125 1.60854C13.3385 1.868 13.4693 2.18554 13.5005 2.52012C13.5317 2.8547 13.4619 3.19095 13.3 3.48541C12.0353 5.80739 11.3749 8.41012 11.3794 11.0542C11.3794 19.8501 18.55 26.9726 27.3875 26.9726C28.5403 26.9726 29.6625 26.8523 30.7409 26.6226C31.0715 26.551 31.4159 26.5784 31.731 26.7013C32.0461 26.8243 32.318 27.0373 32.5128 27.3139C32.7184 27.6014 32.8232 27.9488 32.811 28.3021C32.7987 28.6554 32.67 28.9947 32.445 29.2673C30.7293 31.3748 28.5649 33.0729 26.1096 34.2377C23.6544 35.4025 20.9701 36.0047 18.2525 36.0004C8.16813 36.0004 0 27.876 0 17.866C0 10.3323 4.62438 3.87041 11.2088 1.13166C11.5367 0.993047 11.9009 0.964596 12.2464 1.05059C12.5919 1.13658 12.9002 1.33236 13.125 1.60854Z" fill="white"/>
<path d="M83 10.6667C80.7898 10.6667 78.6702 11.5447 77.1074 13.1075C75.5446 14.6703 74.6666 16.7899 74.6666 19C74.6666 21.2102 75.5446 23.3298 77.1074 24.8926C78.6702 26.4554 80.7898 27.3334 83 27.3334C85.2101 27.3334 87.3297 26.4554 88.8925 24.8926C90.4553 23.3298 91.3333 21.2102 91.3333 19C91.3333 16.7899 90.4553 14.6703 88.8925 13.1075C87.3297 11.5447 85.2101 10.6667 83 10.6667Z" fill="#383838"/>
<path fill-rule="evenodd" clip-rule="evenodd" d="M83 0.666687C83.442 0.666687 83.8659 0.842282 84.1785 1.15484C84.491 1.4674 84.6666 1.89133 84.6666 2.33335V4.00002C84.6666 4.44205 84.491 4.86597 84.1785 5.17853C83.8659 5.49109 83.442 5.66669 83 5.66669C82.5579 5.66669 82.134 5.49109 81.8214 5.17853C81.5089 4.86597 81.3333 4.44205 81.3333 4.00002V2.33335C81.3333 1.89133 81.5089 1.4674 81.8214 1.15484C82.134 0.842282 82.5579 0.666687 83 0.666687ZM68.4883 4.48835C68.8008 4.1759 69.2247 4.00038 69.6666 4.00038C70.1086 4.00038 70.5324 4.1759 70.845 4.48835L73.345 6.98835C73.6486 7.30269 73.8165 7.72369 73.8128 8.16069C73.809 8.59768 73.6337 9.0157 73.3247 9.32472C73.0156 9.63373 72.5976 9.80901 72.1606 9.81281C71.7236 9.81661 71.3026 9.64862 70.9883 9.34502L68.4883 6.84502C68.1758 6.53247 68.0003 6.10863 68.0003 5.66669C68.0003 5.22475 68.1758 4.8009 68.4883 4.48835ZM97.5116 4.48835C97.8241 4.8009 97.9996 5.22475 97.9996 5.66669C97.9996 6.10863 97.8241 6.53247 97.5116 6.84502L95.0116 9.34502C94.8579 9.5042 94.674 9.63117 94.4706 9.71852C94.2673 9.80587 94.0486 9.85185 93.8273 9.85377C93.606 9.85569 93.3865 9.81352 93.1817 9.72972C92.9769 9.64592 92.7908 9.52217 92.6343 9.36568C92.4778 9.20919 92.354 9.0231 92.2702 8.81828C92.1864 8.61345 92.1443 8.39398 92.1462 8.17268C92.1481 7.95139 92.1941 7.73269 92.2815 7.52935C92.3688 7.32601 92.4958 7.1421 92.655 6.98835L95.155 4.48835C95.4675 4.1759 95.8913 4.00038 96.3333 4.00038C96.7752 4.00038 97.1991 4.1759 97.5116 4.48835ZM64.6666 19C64.6666 18.558 64.8422 18.1341 65.1548 17.8215C65.4673 17.5089 65.8913 17.3334 66.3333 17.3334H68C68.442 17.3334 68.8659 17.5089 69.1785 17.8215C69.491 18.1341 69.6666 18.558 69.6666 19C69.6666 19.442 69.491 19.866 69.1785 20.1785C68.8659 20.4911 68.442 20.6667 68 20.6667H66.3333C65.8913 20.6667 65.4673 20.4911 65.1548 20.1785C64.8422 19.866 64.6666 19.442 64.6666 19ZM96.3333 19C96.3333 18.558 96.5089 18.1341 96.8214 17.8215C97.134 17.5089 97.5579 17.3334 98 17.3334H99.6666C100.109 17.3334 100.533 17.5089 100.845 17.8215C101.158 18.1341 101.333 18.558 101.333 19C101.333 19.442 101.158 19.866 100.845 20.1785C100.533 20.4911 100.109 20.6667 99.6666 20.6667H98C97.5579 20.6667 97.134 20.4911 96.8214 20.1785C96.5089 19.866 96.3333 19.442 96.3333 19ZM73.345 28.655C73.6574 28.9676 73.8329 29.3914 73.8329 29.8334C73.8329 30.2753 73.6574 30.6991 73.345 31.0117L70.845 33.5117C70.5306 33.8153 70.1096 33.9833 69.6726 33.9795C69.2356 33.9757 68.8176 33.8004 68.5086 33.4914C68.1996 33.1824 68.0243 32.7643 68.0205 32.3274C68.0167 31.8904 68.1847 31.4694 68.4883 31.155L70.9883 28.655C71.3008 28.3426 71.7247 28.167 72.1666 28.167C72.6086 28.167 73.0324 28.3426 73.345 28.655ZM92.655 28.655C92.9675 28.3426 93.3913 28.167 93.8333 28.167C94.2752 28.167 94.6991 28.3426 95.0116 28.655L97.5116 31.155C97.8152 31.4694 97.9832 31.8904 97.9794 32.3274C97.9756 32.7643 97.8003 33.1824 97.4913 33.4914C97.1823 33.8004 96.7643 33.9757 96.3273 33.9795C95.8903 33.9833 95.4693 33.8153 95.155 33.5117L92.655 31.0117C92.3425 30.6991 92.167 30.2753 92.167 29.8334C92.167 29.3914 92.3425 28.9676 92.655 28.655ZM83 32.3334C83.442 32.3334 83.8659 32.5089 84.1785 32.8215C84.491 33.1341 84.6666 33.558 84.6666 34V35.6667C84.6666 36.1087 84.491 36.5326 84.1785 36.8452C83.8659 37.1578 83.442 37.3334 83 37.3334C82.5579 37.3334 82.134 37.1578 81.8214 36.8452C81.5089 36.5326 81.3333 36.1087 81.3333 35.6667V34C81.3333 33.558 81.5089 33.1341 81.8214 32.8215C82.134 32.5089 82.5579 32.3334 83 32.3334Z" fill="#383838"/>
</svg>
