<svg width="314" height="180" viewBox="0 0 314 180" fill="none" xmlns="http://www.w3.org/2000/svg">
<path fill-rule="evenodd" clip-rule="evenodd" d="M99.25 21.375C99.25 32.2826 90.4076 41.125 79.5 41.125C68.5924 41.125 59.75 32.2826 59.75 21.375C59.75 10.4674 68.5924 1.625 79.5 1.625C90.4076 1.625 99.25 10.4674 99.25 21.375ZM109.125 51L119 110.25H104.188V179.375H84.4376V120.125H74.5626V179.375H54.8126L54.8125 93.3214L44.9375 110.25H40L10.375 179.375H0.5L30.125 110.25H20.25L54.8125 51H109.125Z" fill="white"/>
<path fill-rule="evenodd" clip-rule="evenodd" d="M164.292 40.4167C175.245 40.4167 184.125 31.537 184.125 20.5833C184.125 9.62969 175.245 0.75 164.292 0.75C153.338 0.75 144.458 9.62969 144.458 20.5833C144.458 31.537 153.338 40.4167 164.292 40.4167ZM189.083 179.25H169.25V119.75H159.333V179.25H139.5V109.833H124.625L134.542 50.3333H258.5L293.208 109.833H283.292L313.042 179.25H303.125L273.375 109.833H268.417L258.5 92.8333L258.5 179.25H238.667V119.75H228.75V179.25H208.917L208.917 70.1667H189.083V179.25ZM233.708 40.4167C222.755 40.4167 213.875 31.537 213.875 20.5833C213.875 9.62969 222.755 0.75 233.708 0.75C244.662 0.75 253.542 9.62969 253.542 20.5833C253.542 31.537 244.662 40.4167 233.708 40.4167Z" fill="white"/>
</svg>
